<svg xmlns="http://www.w3.org/2000/svg" viewBox="0 0 200 60" width="200" height="60">
  <defs>
    <style>
      .cls-1 { fill: #1e3a8a; }
      .cls-2 { fill: #3b82f6; }
    </style>
  </defs>
  <g>
    <path class="cls-1" d="M20,15h8v30h-8V15z"/>
    <path class="cls-2" d="M35,25c0-5.5,4.5-10,10-10s10,4.5,10,10v5c0,5.5-4.5,10-10,10s-10-4.5-10-10V25z M43,25v5c0,1.1,0.9,2,2,2s2-0.9,2-2v-5c0-1.1-0.9-2-2-2S43,23.9,43,25z"/>
    <path class="cls-1" d="M65,35V25c0-5.5,4.5-10,10-10v8c-1.1,0-2,0.9-2,2v10h-8z"/>
    <path class="cls-1" d="M85,35V25c0-5.5,4.5-10,10-10s10,4.5,10,10v10h-8V25c0-1.1-0.9-2-2-2s-2,0.9-2,2v10H85z"/>
    <path class="cls-1" d="M115,15h8v30h-8V15z"/>
    <path class="cls-2" d="M130,25c0-5.5,4.5-10,10-10s10,4.5,10,10v5c0,5.5-4.5,10-10,10s-10-4.5-10-10V25z M138,25v5c0,1.1,0.9,2,2,2s2-0.9,2-2v-5c0-1.1-0.9-2-2-2S138,23.9,138,25z"/>
    <path class="cls-1" d="M160,25c0-5.5,4.5-10,10-10s10,4.5,10,10v5c0,5.5-4.5,10-10,10s-10-4.5-10-10V25z M168,25v5c0,1.1,0.9,2,2,2s2-0.9,2-2v-5c0-1.1-0.9-2-2-2S168,23.9,168,25z"/>
  </g>
</svg>
