<svg xmlns="http://www.w3.org/2000/svg" viewBox="0 0 141.73 46.77" width="141.73" height="46.77">
  <defs>
    <style>
      .cls-1 { fill: #1a1f71; }
      .cls-2 { fill: #f79e1b; }
    </style>
  </defs>
  <g>
    <path class="cls-1" d="M60.14,18.96h-8.46L56.06,37.2h8.46L60.14,18.96z"/>
    <path class="cls-1" d="M94.92,19.61c-1.68-0.63-4.32-1.31-7.61-1.31c-8.39,0-14.29,4.46-14.35,10.85c-0.06,4.72,4.21,7.36,7.43,8.93c3.31,1.61,4.42,2.64,4.41,4.08c-0.02,2.2-2.64,3.18-5.08,3.18c-3.39,0-5.19-0.5-7.98-1.73l-1.09-0.52l-1.19,7.33c1.98,0.92,5.65,1.71,9.46,1.75c8.92,0,14.7-4.41,14.77-11.24c0.04-3.74-2.23-6.58-7.12-8.93c-2.96-1.51-4.77-2.52-4.75-4.05c0-1.36,1.53-2.81,4.83-2.81c2.76-0.04,4.76,0.59,6.31,1.25l0.76,0.37L94.92,19.61z"/>
    <path class="cls-1" d="M105.55,18.96c-1.87,0-3.27,0.54-4.09,2.52L89.8,37.2h8.9l1.77-4.9h10.88l1.02,4.9h7.86L115.45,18.96H105.55z M107.71,27.7h-7.04l2.98-8.25L107.71,27.7z"/>
    <path class="cls-1" d="M45.05,18.96L36.8,32.06l-0.85-4.37c-1.48-5.02-6.11-10.45-11.28-13.17l7.58,22.68h8.98L54.03,18.96H45.05z"/>
    <path class="cls-2" d="M17.21,18.96H1.32l-0.1,0.61c10.68,2.73,17.75,9.32,20.69,17.26l-2.98-15.35C18.53,19.67,17.95,19.02,17.21,18.96z"/>
  </g>
</svg>
